# This file uses centimeters as units for non-parametric coordinates.

mtllib SM_ConveyorBelt_Corner.mtl
g default
v 104.176208 130.657623 149.715668
v 104.176208 130.657623 104.460785
v 104.176208 142.607376 149.715668
v -104.176254 142.607376 149.715668
v -104.176254 130.657623 149.715668
v -104.176254 130.657623 104.460785
v 104.176208 139.620239 105.261200
v 104.176208 141.806976 107.447968
v 104.176208 142.607376 110.435089
v 104.176208 136.633102 104.460785
v -104.176254 136.633102 104.460785
v -104.176254 142.607376 110.435089
v -104.176254 141.806976 107.447968
v -104.176254 139.620239 105.261200
v 104.176216 130.657623 104.460541
v 104.176216 142.607376 104.460541
v 104.176216 142.607376 -103.891876
v -150.000038 142.607376 104.460541
v -150.000038 142.607376 -103.891876
v -150.000038 130.657623 104.460541
v -104.176247 0.000019 104.460541
v -120.923637 0.000019 104.460541
v -104.176247 74.526718 104.460541
v -120.923637 74.526718 104.460541
v -104.176247 74.526718 121.208099
v -120.923637 74.526718 121.208099
v -104.176247 0.000019 121.208099
v -120.923637 0.000019 121.208099
v -104.176247 28.806484 104.460541
v -120.923637 28.806484 104.460541
v -120.923637 28.806484 121.208099
v -104.176247 28.806484 121.208099
v -104.176247 53.648739 104.460541
v -120.923637 53.648739 104.460541
v -120.923637 53.648739 121.208099
v -104.176247 53.648739 121.208099
v -117.081009 51.335678 121.208099
v -108.018875 51.335678 121.208099
v -117.081009 31.119532 121.208099
v -108.018875 31.119532 121.208099
v -117.081009 51.335678 149.715668
v -108.018875 51.335678 149.715668
v -117.081009 31.119532 149.715668
v -108.018875 31.119532 149.715668
v -120.923637 31.119528 108.303192
v -120.923637 31.119528 117.365326
v -120.923637 51.335678 117.365326
v -120.923637 51.335678 108.303192
v -150.000038 31.119528 108.303192
v -150.000038 31.119528 117.365326
v -150.000038 51.335678 117.365326
v -150.000038 51.335678 108.303192
v -150.000053 74.526711 149.715546
v 150.000099 74.526711 149.715546
v 150.000099 146.627426 149.715546
v 150.000099 146.627426 -149.715729
v -150.000053 74.526711 -149.715729
v 150.000099 74.526711 -149.715729
v -104.176247 74.526711 149.715546
v -104.176247 74.526711 -149.715729
v 104.176247 74.526711 149.715546
v 104.176247 74.526711 -149.715729
v 104.176247 146.627426 -149.715729
v 104.176247 146.627426 149.715546
v -104.176247 126.509308 149.715546
v 104.176247 126.509308 149.715546
v 150.000099 126.509308 149.715546
v 150.000099 126.509308 -149.715729
v 104.176247 126.509308 -149.715729
v -104.176247 126.509308 -149.715729
v -150.000053 126.509308 -149.715729
v 150.000099 146.627426 -103.891876
v 150.000099 126.509308 -103.891876
v 150.000099 74.526711 -103.891876
v 104.176247 74.526711 -103.891876
v -104.176247 74.526711 -103.891876
v -150.000053 74.526711 -103.891876
v -150.000053 126.509323 -103.891876
v -104.176247 126.509308 -103.891876
v 104.176247 126.509308 -103.891876
v 104.176247 146.627426 -103.891876
v -104.176247 146.627426 -149.715729
v -150.000053 146.627426 -149.715729
v -150.000053 146.627441 -103.891876
v -104.176247 146.627411 -103.891876
v 150.000099 146.627426 104.460663
v 150.000099 126.509308 104.460663
v 150.000099 74.526711 104.460663
v 104.176247 74.526711 104.460663
v -104.176247 74.526711 104.460663
v -150.000053 74.526711 104.460663
v -150.000053 126.509323 104.460663
v -104.176247 126.509308 104.460663
v 104.176247 126.509308 104.460663
v 104.176247 146.627426 104.460663
v -150.000053 146.627441 104.460663
v -104.176247 146.627426 104.460663
v -150.000053 146.627426 149.715546
v -104.176247 146.627426 149.715546
v 120.923561 0.000019 -121.207794
v 104.176170 0.000019 -121.207794
v 120.923561 74.526718 -121.207794
v 104.176170 74.526718 -121.207794
v 120.923561 74.526718 -104.460358
v 104.176170 74.526718 -104.460358
v 120.923561 0.000019 -104.460358
v 104.176170 0.000019 -104.460358
v 120.923561 28.806484 -121.207794
v 104.176170 28.806484 -121.207794
v 104.176170 28.806484 -104.460358
v 120.923561 28.806484 -104.460358
v 120.923561 53.648739 -121.207794
v 104.176170 53.648739 -121.207794
v 104.176170 53.648739 -104.460358
v 120.923561 53.648739 -104.460358
v 108.018799 51.335678 -104.460358
v 117.080933 51.335678 -104.460358
v 108.018799 31.119532 -104.460358
v 117.080933 31.119532 -104.460358
v 108.018799 51.335678 149.715729
v 117.080933 51.335678 149.715729
v 108.018799 31.119532 149.715729
v 117.080933 31.119532 149.715729
v 104.176170 31.119528 -117.365265
v 104.176170 31.119528 -108.303131
v 104.176170 51.335678 -108.303131
v 104.176170 51.335678 -117.365265
v -150.000099 31.119528 -117.365265
v -150.000099 31.119528 -108.303131
v -150.000099 51.335678 -108.303131
v -150.000099 51.335678 -117.365265
vt 0.830502 0.065821
vt 0.921499 0.088958
vt 0.921597 0.580712
vt 0.823604 0.603240
vt 0.950900 0.073329
vt 0.959005 0.584095
vt 0.944122 0.583923
vt 0.944084 0.086229
vt 0.929090 0.089582
vt 0.929281 0.580227
vt 0.936760 0.088463
vt 0.936910 0.581531
vt 0.844296 0.036515
vt 0.837551 0.632624
vt 0.955141 0.657378
vt 0.951355 0.973469
vt 0.565745 0.968850
vt 0.569531 0.652759
vt 0.361198 0.173735
vt 0.246817 0.173280
vt 0.246628 0.220810
vt 0.208502 0.220658
vt 0.322882 0.221114
vt 0.284755 0.220962
vt 0.284945 0.173432
vt 0.323071 0.173583
vt 0.361685 0.051600
vt 0.247304 0.051144
vt 0.247043 0.116725
vt 0.361423 0.117180
vt 0.285430 0.051296
vt 0.285170 0.116876
vt 0.323296 0.117028
vt 0.323557 0.051448
vt 0.212245 0.225741
vt 0.277565 0.227008
vt 0.238925 0.226259
vt 0.250885 0.226490
vt 0.211516 0.263364
vt 0.276835 0.264630
vt 0.238196 0.263881
vt 0.250155 0.264113
vt 0.237471 0.306395
vt 0.249360 0.306614
vt 0.287775 0.307320
vt 0.275885 0.307102
vt 0.238173 0.268246
vt 0.250062 0.268464
vt 0.288476 0.269171
vt 0.276587 0.268952
vt 0.388625 0.437350
vt 0.399806 0.368611
vt 0.462832 0.398171
vt 0.444760 0.453005
vt 0.464773 0.467997
vt 0.384711 0.466336
vt 0.445482 0.609264
vt 0.380871 0.607027
vt 0.381059 0.541438
vt 0.445077 0.546610
vt 0.488530 0.412521
vt 0.024262 0.538919
vt 0.088048 0.538323
vt 0.087988 0.603796
vt 0.023061 0.603482
vt 0.089086 0.464975
vt 0.025080 0.466145
vt 0.630144 0.157034
vt 0.653364 0.173334
vt 0.442523 0.904258
vt 0.377540 0.903190
vt 0.083679 0.899275
vt 0.018718 0.898729
vt 0.384248 0.123866
vt 0.023203 0.346058
vt 0.376173 0.070855
vt 0.546867 0.612945
vt 0.556404 0.102133
vt 0.436507 0.127284
vt 0.579029 0.119461
vt 0.025071 0.438173
vt 0.090601 0.436740
vt 0.089184 0.373399
vt 0.023953 0.374402
vt 0.691236 0.121468
vt 0.668394 0.105176
vt 0.750996 0.163723
vt 0.376783 0.967426
vt 0.082955 0.963524
vt 0.018026 0.962926
vt 0.528712 0.593981
vt 0.466729 0.596643
vt 0.475521 0.528338
vt 0.543620 0.533951
vt 0.571198 0.546072
vt 0.440668 0.063675
vt 0.616889 0.067395
vt 0.116185 0.180774
vt 0.156598 0.180731
vt 0.156652 0.231112
vt 0.116239 0.231155
vt 0.075826 0.231198
vt 0.035413 0.231241
vt 0.197011 0.180689
vt 0.075773 0.180817
vt 0.116048 0.051315
vt 0.156461 0.051272
vt 0.156535 0.120785
vt 0.116122 0.120828
vt 0.196874 0.051229
vt 0.196948 0.120742
vt 0.075709 0.120871
vt 0.075635 0.051358
vt 0.194932 0.279727
vt 0.194735 0.310614
vt 0.194852 0.292343
vt 0.194816 0.297998
vt 0.036314 0.278714
vt 0.036116 0.309601
vt 0.036233 0.291330
vt 0.036197 0.296985
vt 0.037718 0.248414
vt 0.037713 0.254037
vt 0.037697 0.272203
vt 0.037702 0.266581
vt 0.195430 0.248552
vt 0.195425 0.254175
vt 0.195409 0.272341
vt 0.195414 0.266718
vt 0.713422 0.215408
vt 0.441690 0.968403
vt 0.552503 0.451190
vt 0.446278 0.477816
vt 0.524740 0.506167
vt 0.474237 0.629062
vt 0.387666 0.071607
vt 0.388409 0.060256
vt 0.439925 0.075025
vt 0.386490 0.343519
vt 0.088096 0.345464
vt 0.372755 0.123114
vt 0.594166 0.050440
vt 0.950545 0.596997
vt 0.958975 0.086362
vt 0.044626 0.175269
vt 0.037729 0.235870
vt 0.195440 0.236008
vt 0.066494 0.175245
vt 0.044575 0.126485
vt 0.066442 0.126462
vt 0.187681 0.126333
vt 0.194699 0.316269
vt 0.036080 0.315257
vt 0.165813 0.126357
vt 0.187733 0.175117
vt 0.165865 0.175140
vt 0.035360 0.180860
vt 0.035296 0.120913
vt 0.035222 0.051401
vt 0.197065 0.231069
vt 0.293713 0.168201
vt 0.314344 0.168283
vt 0.293897 0.122177
vt 0.314527 0.122259
vt 0.276401 0.122107
vt 0.255770 0.122025
vt 0.276217 0.168131
vt 0.255586 0.168049
vt 0.208690 0.173128
vt 0.361009 0.221266
vt 0.208916 0.116573
vt 0.209177 0.050993
vt 0.210947 0.305907
vt 0.211648 0.267758
vt 0.289524 0.227239
vt 0.288795 0.264862
vn 0.000000 1.000000 0.000000
vn 0.000000 0.999821 -0.018933
vn 0.000000 0.999821 -0.018933
vn 0.000000 1.000000 0.000000
vn 0.000000 0.000000 -1.000000
vn 0.000000 0.000000 -1.000000
vn 0.000000 0.088952 -0.996036
vn 0.000000 0.088952 -0.996036
vn 0.000000 0.866026 -0.499999
vn 0.000000 0.866026 -0.499999
vn 0.000000 0.707112 -0.707101
vn 0.000000 0.707112 -0.707101
vn 0.000000 0.258823 -0.965925
vn 0.000000 0.258823 -0.965925
vn 1.000000 0.000000 0.000000
vn 1.000000 0.000000 0.000000
vn 1.000000 0.000000 0.000000
vn 1.000000 0.000000 0.000000
vn 1.000000 0.000000 0.000000
vn 1.000000 0.000000 0.000000
vn 1.000000 0.000000 0.000000
vn -1.000000 0.000000 0.000000
vn -1.000000 0.000000 0.000000
vn -1.000000 0.000000 0.000000
vn -1.000000 0.000000 0.000000
vn -1.000000 0.000000 0.000000
vn -1.000000 0.000000 0.000000
vn -1.000000 0.000000 0.000000
vn 0.000000 1.000000 0.000000
vn 0.000000 1.000000 0.000000
vn 0.000000 1.000000 0.000000
vn 0.000000 1.000000 0.000000
vn 0.000000 0.000000 1.000000
vn 0.000000 0.000000 1.000000
vn 0.000000 0.000000 1.000000
vn 0.000000 0.000000 1.000000
vn 0.000000 0.000000 -1.000000
vn 0.000000 0.000000 -1.000000
vn 0.000000 0.000000 -1.000000
vn 0.000000 0.000000 -1.000000
vn 0.000000 0.000000 1.000000
vn 0.000000 0.000000 1.000000
vn 0.000000 0.000000 1.000000
vn 0.000000 0.000000 1.000000
vn -1.000000 0.000000 0.000000
vn -1.000000 0.000000 0.000000
vn -1.000000 0.000000 0.000000
vn -1.000000 0.000000 0.000000
vn 1.000000 0.000000 0.000000
vn 1.000000 0.000000 0.000000
vn 1.000000 0.000000 0.000000
vn 1.000000 0.000000 0.000000
vn 0.000000 0.000000 -1.000000
vn 0.000000 0.000000 -1.000000
vn 0.000000 0.000000 -1.000000
vn 0.000000 0.000000 -1.000000
vn -1.000000 0.000000 0.000000
vn -1.000000 0.000000 0.000000
vn -1.000000 0.000000 0.000000
vn -1.000000 0.000000 0.000000
vn 0.000000 0.000000 1.000000
vn 0.000000 0.000000 1.000000
vn 0.000000 0.000000 1.000000
vn 0.000000 0.000000 1.000000
vn 1.000000 0.000000 0.000000
vn 1.000000 0.000000 0.000000
vn 1.000000 0.000000 0.000000
vn 1.000000 0.000000 0.000000
vn 0.000000 0.000000 1.000000
vn 0.000000 0.000000 1.000000
vn 0.000000 0.000000 1.000000
vn 0.000000 0.000000 1.000000
vn -0.000004 0.000000 1.000000
vn -0.000004 0.000000 1.000000
vn -0.000004 0.000000 1.000000
vn -0.000004 0.000000 1.000000
vn 0.000000 0.000000 1.000000
vn 0.000000 0.000000 1.000000
vn 0.000000 0.000000 1.000000
vn 0.000000 0.000000 1.000000
vn 0.000001 0.000000 1.000000
vn 0.000001 0.000000 1.000000
vn 0.000001 0.000000 1.000000
vn 0.000001 0.000000 1.000000
vn 0.000000 1.000000 0.000000
vn 0.000000 1.000000 0.000000
vn 0.000000 1.000000 0.000000
vn 0.000000 1.000000 0.000000
vn -1.000000 0.000000 0.000000
vn -1.000000 0.000000 0.000000
vn -1.000000 0.000000 0.000000
vn -1.000000 0.000000 0.000000
vn 0.000000 -1.000000 0.000000
vn 0.000000 -1.000000 0.000000
vn 0.000000 -1.000000 0.000000
vn 0.000000 -1.000000 0.000000
vn 1.000000 0.000000 0.000000
vn 1.000000 0.000000 0.000000
vn 1.000000 0.000000 0.000000
vn 1.000000 0.000000 0.000000
vn -1.000000 -0.000004 0.000000
vn -1.000000 -0.000004 0.000000
vn -1.000000 -0.000004 0.000000
vn -1.000000 -0.000004 0.000000
vn -1.000000 0.000000 0.000000
vn -1.000000 0.000000 0.000000
vn -1.000000 0.000000 0.000000
vn -1.000000 0.000000 0.000000
vn -1.000000 0.000003 0.000000
vn -1.000000 0.000003 0.000000
vn -1.000000 0.000003 0.000000
vn -1.000000 0.000003 0.000000
vn -1.000000 0.000000 0.000000
vn -1.000000 0.000000 0.000000
vn -1.000000 0.000000 0.000000
vn -1.000000 0.000000 0.000000
vn 0.000000 -1.000000 0.000000
vn 0.000000 -1.000000 0.000000
vn 0.000000 -1.000000 0.000000
vn 0.000000 -1.000000 0.000000
vn 0.000000 0.000000 1.000000
vn 0.000000 0.000000 1.000000
vn 0.000000 0.000000 1.000000
vn 0.000000 0.000000 1.000000
vn 0.000000 1.000000 0.000000
vn 0.000000 1.000000 0.000000
vn 0.000000 1.000000 0.000000
vn 0.000000 1.000000 0.000000
vn 0.000000 0.000000 -1.000000
vn 0.000000 0.000000 -1.000000
vn 0.000000 0.000000 -1.000000
vn 0.000000 0.000000 -1.000000
vn 0.000000 1.000000 0.000000
vn 0.000000 1.000000 0.000000
vn 0.000000 1.000000 0.000000
vn 0.000000 1.000000 0.000000
vn 0.000000 0.000000 -1.000000
vn 0.000000 0.000000 -1.000000
vn 0.000000 0.000000 -1.000000
vn 0.000000 0.000000 -1.000000
vn 0.000000 -1.000000 0.000000
vn 0.000000 -1.000000 0.000000
vn 0.000000 -1.000000 0.000000
vn 0.000000 -1.000000 0.000000
vn 1.000000 0.000000 0.000000
vn 1.000000 0.000000 0.000000
vn 1.000000 0.000000 0.000000
vn 1.000000 0.000000 0.000000
vn 0.000000 -1.000000 0.000000
vn 0.000000 -1.000000 0.000000
vn 0.000000 -1.000000 0.000000
vn 0.000000 -1.000000 0.000000
vn 1.000000 0.000000 0.000000
vn 1.000000 0.000000 0.000000
vn 0.000000 0.000000 -1.000000
vn 0.000000 0.000000 -1.000000
vn 0.000000 0.000000 -1.000000
vn 0.000000 0.000000 -1.000000
vn 0.000000 0.000000 -1.000000
vn 0.000000 0.000000 -1.000000
vn 1.000000 0.000000 0.000000
vn 1.000000 0.000000 0.000000
vn 1.000000 0.000000 0.000000
vn 0.000000 -1.000000 0.000000
vn 0.000000 -1.000000 0.000000
vn 0.000000 -1.000000 0.000000
vn 0.000000 -1.000000 0.000000
vn 0.000000 1.000000 0.000000
vn 0.000000 1.000000 0.000000
vn 0.000000 1.000000 0.000000
vn 0.000000 1.000000 0.000000
vn 0.000000 1.000000 0.000000
vn 0.000000 1.000000 0.000000
vn 0.000000 1.000000 0.000000
vn 0.000000 1.000000 0.000000
vn -1.000000 0.000000 0.000000
vn -1.000000 0.000000 0.000000
vn -1.000000 0.000000 0.000000
vn -1.000000 0.000000 0.000000
vn 0.000000 1.000000 0.000000
vn 0.000000 1.000000 0.000000
vn 0.000000 0.000000 -1.000000
vn 0.000000 0.000000 -1.000000
vn 0.000000 0.000000 -1.000000
vn 0.000000 0.000000 -1.000000
vn 0.000000 0.000000 -1.000000
vn 0.000000 0.000000 -1.000000
vn 0.000000 0.000000 -1.000000
vn 0.000000 0.000000 -1.000000
vn 0.000000 0.000000 1.000000
vn 0.000000 0.000000 1.000000
vn 0.000000 0.000000 1.000000
vn 0.000000 0.000000 1.000000
vn 0.000000 0.000000 1.000000
vn 0.000000 0.000000 1.000000
vn 0.000000 0.000000 1.000000
vn 0.000000 0.000000 1.000000
vn 0.000000 1.000000 0.000000
vn 0.000000 1.000000 0.000000
vn 0.000000 1.000000 0.000000
vn 0.000000 1.000000 0.000000
vn -0.000000 1.000000 0.000000
vn -0.000000 1.000000 0.000000
vn -0.000000 1.000000 0.000000
vn -0.000000 1.000000 0.000000
vn 1.000000 0.000000 0.000000
vn 1.000000 0.000000 0.000000
vn 1.000000 0.000000 0.000000
vn 0.000000 -1.000000 0.000000
vn 0.000000 -1.000000 0.000000
vn 0.000000 -1.000000 0.000000
vn 0.000000 -1.000000 0.000000
vn 0.000000 1.000000 0.000000
vn 0.000000 1.000000 0.000000
vn 0.000000 1.000000 0.000000
vn 0.000000 1.000000 0.000000
vn 0.000000 1.000000 0.000000
vn 0.000000 1.000000 0.000000
vn -1.000000 0.000000 0.000000
vn -1.000000 0.000000 0.000000
vn 0.000000 1.000000 0.000000
vn 0.000000 1.000000 0.000000
vn 0.000000 0.000000 -1.000000
vn 0.000000 0.000000 -1.000000
vn 0.000000 0.000000 -1.000000
vn 0.000000 0.000000 -1.000000
vn 1.000000 0.000000 0.000000
vn 1.000000 0.000000 0.000000
vn 1.000000 0.000000 0.000000
vn 1.000000 0.000000 0.000000
vn 0.000000 0.000000 -1.000000
vn 0.000000 0.000000 -1.000000
vn 0.000000 0.000000 -1.000000
vn 0.000000 0.000000 -1.000000
vn 0.000000 0.000000 1.000000
vn 0.000000 0.000000 1.000000
vn 0.000000 0.000000 1.000000
vn 0.000000 0.000000 1.000000
vn -1.000000 0.000000 0.000000
vn -1.000000 0.000000 0.000000
vn -1.000000 0.000000 0.000000
vn -1.000000 0.000000 0.000000
vn 1.000000 0.000000 0.000000
vn 1.000000 0.000000 0.000000
vn 1.000000 0.000000 0.000000
vn 1.000000 0.000000 0.000000
vn 0.000000 0.000000 -1.000000
vn 0.000000 0.000000 -1.000000
vn 0.000000 0.000000 -1.000000
vn 0.000000 0.000000 -1.000000
vn -1.000000 0.000000 0.000000
vn -1.000000 0.000000 0.000000
vn -1.000000 0.000000 0.000000
vn -1.000000 0.000000 0.000000
vn 0.000000 0.000000 1.000000
vn 0.000000 0.000000 1.000000
vn 0.000000 0.000000 1.000000
vn 0.000000 0.000000 1.000000
vn 1.000000 0.000000 0.000000
vn 1.000000 0.000000 0.000000
vn 1.000000 0.000000 0.000000
vn 1.000000 0.000000 0.000000
vn 0.000000 0.000000 1.000000
vn 0.000000 0.000000 1.000000
vn 0.000000 0.000000 1.000000
vn 0.000000 0.000000 1.000000
vn 0.000000 0.000000 1.000000
vn 0.000000 0.000000 1.000000
vn 0.000000 0.000000 1.000000
vn 0.000000 0.000000 1.000000
vn 0.000000 0.000000 1.000000
vn 0.000000 0.000000 1.000000
vn 0.000000 0.000000 1.000000
vn 0.000000 0.000000 1.000000
vn 0.000008 0.000000 1.000000
vn 0.000008 0.000000 1.000000
vn 0.000008 0.000000 1.000000
vn 0.000008 0.000000 1.000000
vn 0.000000 1.000000 0.000000
vn 0.000000 1.000000 0.000000
vn 0.000000 1.000000 0.000000
vn 0.000000 1.000000 0.000000
vn -1.000000 0.000000 0.000000
vn -1.000000 0.000000 0.000000
vn -1.000000 0.000000 0.000000
vn -1.000000 0.000000 0.000000
vn 0.000000 -1.000000 0.000000
vn 0.000000 -1.000000 0.000000
vn 0.000000 -1.000000 0.000000
vn 0.000000 -1.000000 0.000000
vn 1.000000 0.000000 0.000000
vn 1.000000 0.000000 0.000000
vn 1.000000 0.000000 0.000000
vn 1.000000 0.000000 0.000000
vn -1.000000 -0.000003 0.000000
vn -1.000000 -0.000003 0.000000
vn -1.000000 -0.000003 0.000000
vn -1.000000 -0.000003 0.000000
vn -1.000000 0.000000 0.000000
vn -1.000000 0.000000 0.000000
vn -1.000000 0.000000 0.000000
vn -1.000000 0.000000 0.000000
vn -1.000000 0.000002 0.000000
vn -1.000000 0.000002 0.000000
vn -1.000000 0.000002 0.000000
vn -1.000000 0.000002 0.000000
vn -1.000000 0.000000 0.000000
vn -1.000000 0.000000 0.000000
vn -1.000000 0.000000 0.000000
vn -1.000000 0.000000 0.000000
vn 0.000000 -1.000000 0.000000
vn 0.000000 -1.000000 0.000000
vn 0.000000 -1.000000 0.000000
vn 0.000000 -1.000000 0.000000
vn 0.000000 0.000000 1.000000
vn 0.000000 0.000000 1.000000
vn 0.000000 0.000000 1.000000
vn 0.000000 0.000000 1.000000
vn 0.000000 1.000000 0.000000
vn 0.000000 1.000000 0.000000
vn 0.000000 1.000000 0.000000
vn 0.000000 1.000000 0.000000
vn 0.000000 0.000000 -1.000000
vn 0.000000 0.000000 -1.000000
vn 0.000000 0.000000 -1.000000
vn 0.000000 0.000000 -1.000000
s 1
g SM_ConveyorBelt_Corner
usemtl initialShadingGroup
f 3/1/1 9/2/2 12/3/3 4/4/4
s 2
f 2/144/5 6/6/6 11/7/7 10/8/8
s 1
f 9/2/2 8/9/9 13/10/10 12/3/3
f 8/9/9 7/11/11 14/12/12 13/10/10
s 2
f 7/11/13 10/8/8 11/7/7 14/12/14
s off
f 7/11/15 8/9/16 9/2/17 3/1/18 1/13/19 2/5/20 10/8/21
f 11/7/22 6/143/23 5/14/24 4/4/25 12/3/26 13/10/27 14/12/28
f 16/15/29 17/16/30 19/17/31 18/18/32
f 20//33 15//34 16//35 18//36
s 3
f 33/169/37 34/20/38 24/21/39 23/22/40
s off
f 25/23/41 26/24/42 35/25/43 36/26/44
f 34/20/45 35/25/46 26/24/47 24/21/48
s 4
f 36/26/49 33/19/50 23/170/51 25/23/52
s 3
f 21/172/53 22/28/54 30/29/55 29/171/56
s off
f 22/28/57 28/31/58 31/32/59 30/29/60
f 32/33/61 31/32/62 28/31/63 27/34/64
s 4
f 27/34/65 21/27/66 29/30/67 32/33/68
s 3
f 29/171/56 30/29/55 34/20/38 33/169/37
s 4
f 32/33/68 29/30/67 33/19/50 36/26/49
s off
f 36/26/69 35/25/70 37/161/71 38/162/72
f 35/25/73 31/32/74 39/163/75 37/161/76
f 31/32/77 32/33/78 40/164/79 39/163/80
f 32/33/81 36/26/82 38/162/83 40/164/84
f 38/36/85 37/175/86 41/176/87 42/40/88
f 37/35/89 39/37/90 43/41/91 41/39/92
f 39/37/93 40/38/94 44/42/95 43/41/96
f 40/38/97 38/36/98 42/40/99 44/42/100
f 30/29/101 31/32/102 46/165/103 45/166/104
f 31/32/105 35/25/106 47/167/107 46/165/108
f 35/25/109 34/20/110 48/168/111 47/167/112
f 34/20/113 30/29/114 45/166/115 48/168/116
f 45/44/117 46/43/118 50/47/119 49/48/120
f 46/43/121 47/173/122 51/174/123 50/47/124
f 47/45/125 48/46/126 52/50/127 51/49/128
f 48/46/129 45/44/130 49/48/131 52/50/132
s 5
f 63/51/133 81/52/134 72/53/135 56/54/136
s 6
f 68/133/137 69/56/138 63/51/139 56/54/140
s 7
f 74/57/141 75/58/142 62/59/143 58/60/144
s 8
f 72/53/145 73/61/146 68/55/147 56/54/148
s 7
f 57/62/149 60/63/150 76/64/151 77/65/152
f 62/59/143 75/58/142 76/64/151 60/63/150
s 8
f 73/61/146 74/132/153 58/134/154 68/55/147
s 6
f 62/59/155 69/56/138 68/133/137 58/60/156
f 70/66/157 69/56/138 62/59/155 60/63/158
f 71/67/159 70/66/157 60/63/158 57/62/160
s 8
f 86/68/161 87/69/162 73/61/146 72/53/145
f 87/69/162 88/130/163 74/132/153 73/61/146
s 7
f 88/70/164 89/71/165 75/58/142 74/57/141
f 76/64/151 75/58/142 89/71/165 90/72/166
f 77/65/152 76/64/151 90/72/166 91/73/167
s off
f 79/74/168 78/141/169 92/76/170 93/136/171
s 9
f 93/136/172 94/138/173 80/79/174 79/74/175
s 10
f 94/78/176 95/80/177 81/52/178 80/139/179
s 5
f 72/53/135 81/52/134 95/80/180 86/68/181
s off
f 70/66/182 71/67/183 83/81/184 82/82/185
f 63/51/186 69/56/187 70/66/188 82/82/189
f 78/75/190 79/140/191 85/83/192 84/84/193
f 80/139/194 81/52/195 85/83/196 79/140/197
f 82/82/198 83/81/199 84/84/200 85/83/201
f 63/51/202 82/82/203 85/83/204 81/52/205
s 8
f 67/85/206 87/69/162 86/68/161 55/86/207
f 54/87/208 88/130/163 87/69/162 67/85/206
s 7
f 61/88/209 89/71/165 88/70/164 54/131/210
f 90/72/166 89/71/165 61/88/209 59/89/211
f 91/73/167 90/72/166 59/89/211 53/90/212
s off
f 97/91/213 96/92/214 98/93/215 99/94/216
s 9
f 65/137/217 66/96/218 94/138/173 93/136/172
s 10
f 64/97/219 95/80/177 94/78/176 66/142/220
s 5
f 86/68/181 95/80/180 64/97/221 55/86/222
s off
f 93/77/223 92/135/224 96/92/225 97/91/226
f 65/95/227 93/77/228 97/91/229 99/94/230
s 11
f 112/98/231 113/99/232 103/100/233 102/101/234
s off
f 104/102/235 105/103/236 114/157/237 115/105/238
f 113/99/239 114/104/240 105/160/241 103/100/242
s 12
f 115/105/243 112/98/244 102/101/245 104/102/246
s 11
f 100/106/247 101/107/248 109/108/249 108/109/250
s off
f 101/107/251 107/110/252 110/111/253 109/108/254
f 111/112/255 110/158/256 107/159/257 106/113/258
s 12
f 106/113/259 100/106/260 108/109/261 111/112/262
s 11
f 108/109/250 109/108/249 113/99/232 112/98/231
s 12
f 111/112/262 108/109/261 112/98/244 115/105/243
s off
f 115/105/263 114/157/264 116/145/265 117/148/266
f 114/157/267 110/158/268 118/149/269 116/145/270
f 110/158/271 111/112/272 119/150/273 118/149/274
f 111/112/275 115/105/276 117/148/277 119/150/278
f 117/115/279 116/152/280 120/153/281 121/119/282
f 116/114/283 118/116/284 122/120/285 120/118/286
f 118/116/287 119/117/288 123/121/289 122/120/290
f 119/117/291 117/115/292 121/119/293 123/121/294
f 109/108/295 110/111/296 125/151/297 124/154/298
f 110/111/299 114/104/300 126/155/301 125/151/302
f 114/104/303 113/99/304 127/156/305 126/155/306
f 113/99/307 109/108/308 124/154/309 127/156/310
f 124/123/311 125/122/312 129/126/313 128/127/314
f 125/122/315 126/146/316 130/147/317 129/126/318
f 126/124/319 127/125/320 131/129/321 130/128/322
f 127/125/323 124/123/324 128/127/325 131/129/326
