# This file uses centimeters as units for non-parametric coordinates.

mtllib SM_ConveyorBelt_Start-End.mtl
g default
v 104.176147 0.000011 149.715656
v 120.923538 0.000011 149.715656
v 104.176147 74.526718 149.715656
v 120.923538 74.526718 149.715656
v 104.176147 74.526718 132.968220
v 120.923538 74.526718 132.968220
v 104.176147 0.000011 132.968220
v 120.923538 0.000011 132.968220
v 104.176147 28.806480 149.715656
v 120.923538 28.806480 149.715656
v 120.923538 28.806480 132.968220
v 104.176147 28.806480 132.968220
v 104.176147 53.648731 149.715656
v 120.923538 53.648731 149.715656
v 120.923538 53.648731 132.968220
v 104.176147 53.648731 132.968220
v 117.080910 51.335678 132.968220
v 108.018776 51.335678 132.968220
v 117.080910 31.119528 132.968220
v 108.018776 31.119528 132.968220
v 117.080910 51.335678 -149.715618
v 108.018776 51.335678 -149.715618
v 117.080910 31.119528 -149.715618
v 108.018776 31.119528 -149.715618
v 150.000076 74.526711 149.715656
v 150.000076 146.627426 149.715656
v 150.000076 146.627426 -149.715679
v 150.000076 74.526711 -149.715679
v 104.176224 74.526711 149.715656
v 104.176224 74.526711 -149.715679
v 104.176224 146.627426 -149.715679
v 104.176224 146.627426 149.715656
v 104.176224 126.509308 149.715656
v 150.000076 126.509308 149.715656
v 150.000076 126.509308 -149.715679
v 104.176224 126.509308 -149.715679
v 0.000000 126.509308 -149.715679
v -0.000000 74.526711 149.715656
v -0.000000 74.526711 -149.715679
v -0.000000 126.509308 149.715656
v -104.176147 0.000011 149.715656
v -120.923538 0.000011 149.715656
v -104.176147 74.526718 149.715656
v -120.923538 74.526718 149.715656
v -104.176147 74.526718 132.968220
v -120.923538 74.526718 132.968220
v -104.176147 0.000011 132.968220
v -120.923538 0.000011 132.968220
v -104.176147 28.806480 149.715656
v -120.923538 28.806480 149.715656
v -120.923538 28.806480 132.968220
v -104.176147 28.806480 132.968220
v -104.176147 53.648731 149.715656
v -120.923538 53.648731 149.715656
v -120.923538 53.648731 132.968220
v -104.176147 53.648731 132.968220
v -117.080910 51.335678 132.968220
v -108.018776 51.335678 132.968220
v -117.080910 31.119528 132.968220
v -108.018776 31.119528 132.968220
v -117.080910 51.335678 -149.715618
v -108.018776 51.335678 -149.715618
v -117.080910 31.119528 -149.715618
v -108.018776 31.119528 -149.715618
v -150.000076 74.526711 149.715656
v -150.000076 146.627426 149.715656
v -150.000076 146.627426 -149.715679
v -150.000076 74.526711 -149.715679
v -104.176224 74.526711 149.715656
v -104.176224 74.526711 -149.715679
v -104.176224 146.627426 -149.715679
v -104.176224 146.627426 149.715656
v -104.176224 126.509308 149.715656
v -150.000076 126.509308 149.715656
v -150.000076 126.509308 -149.715679
v -104.176224 126.509308 -149.715679
v -104.176224 130.539505 149.715656
v 104.176224 130.539505 149.715656
v -104.176224 142.489258 -149.715618
v 104.176224 142.489258 -149.715618
v -104.176224 136.514984 149.715656
v -104.176224 139.502121 148.915363
v -104.176224 141.688858 146.728596
v -104.176224 142.489258 143.741352
v 104.176224 142.489258 143.741352
v 104.176224 141.688858 146.728596
v 104.176224 139.502121 148.915363
v 104.176224 136.514984 149.715656
vt 0.304975 0.188204
vt 0.359823 0.188287
vt 0.359719 0.256664
vt 0.304871 0.256580
vt 0.250022 0.256496
vt 0.414568 0.256747
vt 0.414672 0.188371
vt 0.469520 0.188454
vt 0.305243 0.012502
vt 0.360091 0.012585
vt 0.359947 0.106928
vt 0.305099 0.106844
vt 0.414940 0.012669
vt 0.414796 0.107011
vt 0.469644 0.107095
vt 0.469788 0.012753
vt 0.468968 0.342083
vt 0.469002 0.327384
vt 0.468893 0.374874
vt 0.468859 0.389573
vt 0.010451 0.341037
vt 0.010485 0.326338
vt 0.010376 0.373828
vt 0.010343 0.388527
vt 0.941283 0.572626
vt 0.940536 0.984530
vt 0.877499 0.984415
vt 0.878247 0.572512
vt 0.715280 0.984121
vt 0.716027 0.572217
vt 0.779063 0.572332
vt 0.778316 0.984235
vt 0.849825 0.984365
vt 0.850572 0.572461
vt 0.571973 0.983861
vt 0.572720 0.571957
vt 0.968958 0.572676
vt 0.736652 0.018750
vt 0.981651 0.103827
vt 0.736652 0.103827
vt 0.427268 0.180815
vt 0.456947 0.180860
vt 0.427369 0.114606
vt 0.457048 0.114651
vt 0.066697 0.082458
vt 0.066850 0.014082
vt 0.121698 0.014205
vt 0.121545 0.082581
vt 0.231395 0.014450
vt 0.231242 0.082827
vt 0.176393 0.082704
vt 0.176546 0.014328
vt 0.066303 0.258160
vt 0.066515 0.163818
vt 0.121363 0.163940
vt 0.121152 0.258283
vt 0.466807 0.440757
vt 0.466625 0.521038
vt 0.466699 0.488247
vt 0.466733 0.473548
vt 0.008290 0.439723
vt 0.008109 0.520004
vt 0.008183 0.487212
vt 0.008216 0.472514
vt 0.204158 0.571289
vt 0.267194 0.571403
vt 0.266447 0.983307
vt 0.203411 0.983192
vt 0.428666 0.983601
vt 0.365630 0.983487
vt 0.366377 0.571583
vt 0.429414 0.571697
vt 0.294122 0.983357
vt 0.294869 0.571453
vt 0.175736 0.983142
vt 0.981651 0.188904
vt 0.987824 0.206779
vt 0.989861 0.546218
vt 0.980126 0.546276
vt 0.978089 0.206837
vt 0.962974 0.206928
vt 0.965011 0.546367
vt 0.486924 0.549236
vt 0.484887 0.209798
vt 0.968012 0.206898
vt 0.970050 0.546337
vt 0.973051 0.206868
vt 0.975088 0.546306
vt 0.736652 0.188904
vt 0.176483 0.571239
vt 0.968211 0.984580
vt 0.981651 0.018750
vt 0.176211 0.164063
vt 0.176000 0.258406
vt 0.231060 0.164186
vt 0.011455 0.258037
vt 0.218640 0.090374
vt 0.188961 0.090307
vt 0.188813 0.156516
vt 0.218492 0.156582
vt 0.466592 0.535737
vt 0.008075 0.534702
vt 0.468785 0.422364
vt 0.010268 0.421318
vt 0.011848 0.082336
vt 0.011666 0.163695
vt 0.230849 0.258528
vt 0.012001 0.013959
vt 0.250126 0.188120
vt 0.250250 0.106761
vt 0.250394 0.012418
vt 0.469416 0.256831
vn 0.000000 0.000000 1.000000
vn 0.000000 0.000000 1.000000
vn 0.000000 0.000000 1.000000
vn 0.000000 0.000000 1.000000
vn 0.000000 0.000000 -1.000000
vn 0.000000 0.000000 -1.000000
vn 0.000000 0.000000 -1.000000
vn 0.000000 0.000000 -1.000000
vn 1.000000 0.000000 0.000000
vn 1.000000 0.000000 0.000000
vn 1.000000 0.000000 0.000000
vn 1.000000 0.000000 0.000000
vn -1.000000 0.000000 0.000000
vn -1.000000 0.000000 0.000000
vn -1.000000 0.000000 0.000000
vn -1.000000 0.000000 0.000000
vn 0.000000 0.000000 1.000000
vn 0.000000 0.000000 1.000000
vn 0.000000 0.000000 1.000000
vn 0.000000 0.000000 1.000000
vn 1.000000 0.000000 0.000000
vn 1.000000 0.000000 0.000000
vn 1.000000 0.000000 0.000000
vn 1.000000 0.000000 0.000000
vn 0.000000 0.000000 -1.000000
vn 0.000000 0.000000 -1.000000
vn 0.000000 0.000000 -1.000000
vn 0.000000 0.000000 -1.000000
vn -1.000000 0.000000 0.000000
vn -1.000000 0.000000 0.000000
vn -1.000000 0.000000 0.000000
vn -1.000000 0.000000 0.000000
vn 0.000000 0.000000 -1.000000
vn 0.000000 0.000000 -1.000000
vn 0.000000 0.000000 -1.000000
vn 0.000000 0.000000 -1.000000
vn 0.000004 0.000000 -1.000000
vn 0.000004 0.000000 -1.000000
vn 0.000004 0.000000 -1.000000
vn 0.000004 0.000000 -1.000000
vn 0.000000 0.000000 -1.000000
vn 0.000000 0.000000 -1.000000
vn 0.000000 0.000000 -1.000000
vn 0.000000 0.000000 -1.000000
vn -0.000001 0.000000 -1.000000
vn -0.000001 0.000000 -1.000000
vn -0.000001 0.000000 -1.000000
vn -0.000001 0.000000 -1.000000
vn 0.000000 1.000000 0.000000
vn 0.000000 1.000000 0.000000
vn 0.000000 1.000000 0.000000
vn 0.000000 1.000000 0.000000
vn 1.000000 0.000000 0.000000
vn 1.000000 0.000000 0.000000
vn 1.000000 0.000000 0.000000
vn 1.000000 0.000000 0.000000
vn 0.000000 -1.000000 0.000000
vn 0.000000 -1.000000 0.000000
vn 0.000000 -1.000000 0.000000
vn 0.000000 -1.000000 0.000000
vn -1.000000 0.000000 0.000000
vn -1.000000 0.000000 0.000000
vn -1.000000 0.000000 0.000000
vn -1.000000 0.000000 0.000000
vn 0.000000 1.000000 0.000000
vn 0.000000 1.000000 0.000000
vn 0.000000 1.000000 0.000000
vn 0.000000 1.000000 0.000000
vn 0.000000 -1.000000 0.000000
vn 0.000000 -1.000000 0.000000
vn 0.000000 -1.000000 0.000000
vn 0.000000 -1.000000 0.000000
vn 1.000000 0.000000 0.000000
vn 1.000000 0.000000 0.000000
vn 1.000000 0.000000 0.000000
vn 1.000000 0.000000 0.000000
vn 0.000000 -1.000000 0.000000
vn 0.000000 -1.000000 0.000000
vn 1.000000 0.000000 0.000000
vn 1.000000 0.000000 0.000000
vn -1.000000 0.000000 0.000000
vn -1.000000 0.000000 0.000000
vn -1.000000 0.000000 0.000000
vn -1.000000 0.000000 0.000000
vn 0.000000 1.000000 -0.000000
vn 0.000000 1.000000 -0.000000
vn 0.000000 1.000000 0.000000
vn 0.000000 1.000000 0.000000
vn 0.000000 0.000000 1.000000
vn 0.000000 0.000000 1.000000
vn 0.000000 0.000000 1.000000
vn 0.000000 0.000000 1.000000
vn 0.000000 0.000000 -1.000000
vn 0.000000 0.000000 -1.000000
vn 0.000000 0.000000 -1.000000
vn 0.000000 0.000000 -1.000000
vn -1.000000 0.000000 0.000000
vn -1.000000 0.000000 0.000000
vn -1.000000 0.000000 0.000000
vn -1.000000 0.000000 0.000000
vn 1.000000 0.000000 0.000000
vn 1.000000 0.000000 0.000000
vn 1.000000 0.000000 0.000000
vn 1.000000 0.000000 0.000000
vn 0.000000 0.000000 1.000000
vn 0.000000 0.000000 1.000000
vn 0.000000 0.000000 1.000000
vn 0.000000 0.000000 1.000000
vn -1.000000 0.000000 0.000000
vn -1.000000 0.000000 0.000000
vn -1.000000 0.000000 0.000000
vn -1.000000 0.000000 0.000000
vn 0.000000 0.000000 -1.000000
vn 0.000000 0.000000 -1.000000
vn 0.000000 0.000000 -1.000000
vn 0.000000 0.000000 -1.000000
vn 1.000000 0.000000 0.000000
vn 1.000000 0.000000 0.000000
vn 1.000000 0.000000 0.000000
vn 1.000000 0.000000 0.000000
vn 0.000000 0.000000 -1.000000
vn 0.000000 0.000000 -1.000000
vn 0.000000 0.000000 -1.000000
vn 0.000000 0.000000 -1.000000
vn 0.000000 0.000000 -1.000000
vn 0.000000 0.000000 -1.000000
vn 0.000000 0.000000 -1.000000
vn 0.000000 0.000000 -1.000000
vn 0.000000 0.000000 -1.000000
vn 0.000000 0.000000 -1.000000
vn 0.000000 0.000000 -1.000000
vn 0.000000 0.000000 -1.000000
vn 0.000000 0.000000 -1.000000
vn 0.000000 0.000000 -1.000000
vn 0.000000 0.000000 -1.000000
vn 0.000000 0.000000 -1.000000
vn 0.000000 1.000000 0.000000
vn 0.000000 1.000000 0.000000
vn 0.000000 1.000000 0.000000
vn 0.000000 1.000000 0.000000
vn -1.000000 0.000000 0.000000
vn -1.000000 0.000000 0.000000
vn -1.000000 0.000000 0.000000
vn -1.000000 0.000000 0.000000
vn 0.000000 -1.000000 0.000000
vn 0.000000 -1.000000 0.000000
vn 0.000000 -1.000000 0.000000
vn 0.000000 -1.000000 0.000000
vn 1.000000 0.000000 0.000000
vn 1.000000 0.000000 0.000000
vn 1.000000 0.000000 0.000000
vn 1.000000 0.000000 0.000000
vn 0.000000 1.000000 0.000000
vn 0.000000 1.000000 0.000000
vn 0.000000 1.000000 0.000000
vn 0.000000 1.000000 0.000000
vn 0.000000 -1.000000 0.000000
vn 0.000000 -1.000000 0.000000
vn 0.000000 -1.000000 0.000000
vn 0.000000 -1.000000 0.000000
vn -1.000000 0.000000 0.000000
vn -1.000000 0.000000 0.000000
vn -1.000000 0.000000 0.000000
vn -1.000000 0.000000 0.000000
vn -1.000000 0.000000 0.000000
vn -1.000000 0.000000 0.000000
vn 1.000000 0.000000 0.000000
vn 1.000000 0.000000 0.000000
vn 1.000000 0.000000 0.000000
vn 1.000000 0.000000 0.000000
vn 0.000000 1.000000 -0.000000
vn 0.000000 1.000000 -0.000000
vn 0.000000 0.000000 1.000000
vn 0.000000 0.000000 1.000000
vn 0.000000 0.088938 0.996037
vn 0.000000 0.088938 0.996037
vn 0.000000 0.999996 0.002700
vn 0.000000 0.999996 0.002700
vn 0.000000 1.000000 0.000000
vn 0.000000 1.000000 0.000000
vn 0.000000 0.866031 0.499991
vn 0.000000 0.866031 0.499991
vn 0.000000 0.707111 0.707103
vn 0.000000 0.707111 0.707103
vn 0.000000 0.258787 0.965935
vn 0.000000 0.258787 0.965935
s 1
g SM_ConveyorBelt_Start
usemtl initialShadingGroup
f 13/1/1 14/2/2 4/3/3 3/4/4
s off
f 5/112/5 6/6/6 15/7/7 16/8/8
s 2
f 14/2/9 15/7/10 6/6/11 4/3/12
s 3
f 16/109/13 13/1/14 3/4/15 5/5/16
s 1
f 1/9/17 2/10/18 10/11/19 9/12/20
s 2
f 2/10/21 8/13/22 11/14/23 10/11/24
s off
f 12/15/25 11/14/26 8/13/27 7/16/28
s 3
f 7/111/29 1/9/30 9/12/31 12/110/32
s 1
f 9/12/20 10/11/19 14/2/2 13/1/1
s 2
f 10/11/24 11/14/23 15/7/10 14/2/9
s 3
f 12/110/32 9/12/31 13/1/14 16/109/13
s off
f 16/8/33 15/7/34 17/41/35 18/42/36
f 15/7/37 11/14/38 19/43/39 17/41/40
f 11/14/41 12/15/42 20/44/43 19/43/44
f 12/15/45 16/8/46 18/42/47 20/44/48
f 18/18/49 17/17/50 21/21/51 22/22/52
f 17/17/53 19/19/54 23/23/55 21/21/56
f 19/19/57 20/20/58 24/24/59 23/23/60
f 20/20/61 18/103/62 22/104/63 24/24/64
f 31/25/65 32/26/66 26/27/67 27/28/68
s 4
f 29/29/69 30/30/70 28/31/71 25/32/72
s 5
f 34/33/73 35/34/74 27/28/75 26/27/76
s 4
f 30/30/70 29/29/69 38/35/77 39/36/78
s 5
f 25/32/79 28/31/80 35/34/74 34/33/73
s off
f 32/26/81 31/25/82 36/37/83 33/91/84
s 6
f 37/39/85 40/40/86 33/38/87 36/92/88
s 7
f 53/45/89 43/46/90 44/47/91 54/48/92
s off
f 45/49/93 56/50/94 55/51/95 46/52/96
s 8
f 54/48/97 44/47/98 46/52/99 55/51/100
s 9
f 56/105/101 45/108/102 43/46/103 53/45/104
s 7
f 41/53/105 49/54/106 50/55/107 42/56/108
s 8
f 42/56/109 50/55/110 51/93/111 48/94/112
s off
f 52/95/113 47/107/114 48/94/115 51/93/116
s 9
f 47/96/117 52/106/118 49/54/119 41/53/120
s 7
f 49/54/106 53/45/89 54/48/92 50/55/107
s 8
f 50/55/110 54/48/97 55/51/100 51/93/111
s 9
f 52/106/118 56/105/101 53/45/104 49/54/119
s off
f 56/50/121 58/97/122 57/98/123 55/51/124
f 55/51/125 57/98/126 59/99/127 51/93/128
f 51/93/129 59/99/130 60/100/131 52/95/132
f 52/95/133 60/100/134 58/97/135 56/50/136
f 58/101/137 62/102/138 61/62/139 57/58/140
f 57/58/141 61/62/142 63/63/143 59/59/144
f 59/59/145 63/63/146 64/64/147 60/60/148
f 60/60/149 64/64/150 62/61/151 58/57/152
f 71/65/153 67/66/154 66/67/155 72/68/156
s 4
f 69/69/157 65/70/158 68/71/159 70/72/160
s 10
f 74/73/161 66/67/162 67/66/163 75/74/164
s 4
f 70/72/160 39/36/78 38/35/77 69/69/157
s 10
f 65/70/165 74/73/161 75/74/164 68/71/166
s off
f 72/68/167 73/75/168 76/90/169 71/65/170
s 6
f 37/39/85 76/76/171 73/89/172 40/40/86
s 11
f 77/77/173 78/78/174 88/79/175 81/80/176
s 12
f 84/81/177 85/82/178 80/83/179 79/84/180
f 84/81/177 83/85/181 86/86/182 85/82/178
f 83/85/181 82/87/183 87/88/184 86/86/182
s 11
f 82/87/185 81/80/176 88/79/175 87/88/186
